HIERARCHY
ROOT Hips
{
  OFFSET 196.326 95.9168 97.7182
  CHANNELS 6 Xposition Yposition Zposition Zrotation Xrotation Yrotation
  JOINT LeftUpLeg
  {
    OFFSET 8.64259 1.95398 -2.38835
    CHANNELS 3 Zrotation Xrotation Yrotation
    JOINT LeftLeg
    {
      OFFSET 43.7702 0 0
      CHANNELS 3 Zrotation Xrotation Yrotation
      JOINT LeftFoot
      {
        OFFSET 40.6238 0 0
        CHANNELS 3 Zrotation Xrotation Yrotation
        JOINT LeftToeBase
        {
          OFFSET 12.7242 0 0
          CHANNELS 3 Zrotation Xrotation Yrotation
          End Site
          {
            OFFSET 0 0 0
          }
        }
      }
    }
  }
  JOINT RightUpLeg
  {
    OFFSET -8.2249 1.95398 -2.59336
    CHANNELS 3 Zrotation Xrotation Yrotation
    JOINT RightLeg
    {
      OFFSET 43.5653 0 0
      CHANNELS 3 Zrotation Xrotation Yrotation
      JOINT RightFoot
      {
        OFFSET 40.6238 0 0
        CHANNELS 3 Zrotation Xrotation Yrotation
        JOINT RightToeBase
        {
          OFFSET 12.7242 0 0
          CHANNELS 3 Zrotation Xrotation Yrotation
          End Site
          {
            OFFSET 0 0 0
          }
        }
      }
    }
  }
  JOINT Spine
  {
    OFFSET 0.165834 0.87714 6.61349
    CHANNELS 3 Zrotation Xrotation Yrotation
    JOINT Spine1
    {
      OFFSET 7.38963 1.71661e-005 0
      CHANNELS 3 Zrotation Xrotation Yrotation
      JOINT Spine2
      {
        OFFSET 11.9445 1.14441e-005 0
        CHANNELS 3 Zrotation Xrotation Yrotation
        JOINT Spine3
        {
          OFFSET 14.7254 4.19617e-005 0
          CHANNELS 3 Zrotation Xrotation Yrotation
          JOINT Spine4
          {
            OFFSET 10.9679 0 0
            CHANNELS 3 Zrotation Xrotation Yrotation
            JOINT RightShoulder
            {
              OFFSET 2.46616 -1.6653 3.69651
              CHANNELS 3 Zrotation Xrotation Yrotation
              JOINT RightArm
              {
                OFFSET 13.0012 0 0
                CHANNELS 3 Zrotation Xrotation Yrotation
                JOINT RightForeArm
                {
                  OFFSET 28.7848 1.52588e-005 0
                  CHANNELS 3 Zrotation Xrotation Yrotation
                  JOINT RightHand
                  {
                    OFFSET 26.5688 1.52588e-005 0
                    CHANNELS 3 Zrotation Xrotation Yrotation
                    End Site
                    {
                      OFFSET 0 0 0
                    }
                  }
                }
              }
            }
            JOINT LeftShoulder
            {
              OFFSET 2.38034 -1.29275 -3.75231
              CHANNELS 3 Zrotation Xrotation Yrotation
              JOINT LeftArm
              {
                OFFSET 16.3182 6.10351e-005 0
                CHANNELS 3 Zrotation Xrotation Yrotation
                JOINT LeftForeArm
                {
                  OFFSET 27.0901 0 0
                  CHANNELS 3 Zrotation Xrotation Yrotation
                  JOINT LeftHand
                  {
                    OFFSET 24.5451 1.52588e-005 0
                    CHANNELS 3 Zrotation Xrotation Yrotation
                    End Site
                    {
                      OFFSET 0 0 0
                    }
                  }
                }
              }
            }
            JOINT Neck
            {
              OFFSET 5.0226 -0.0266342 0
              CHANNELS 3 Zrotation Xrotation Yrotation
              JOINT Head
              {
                OFFSET 6.69363 2.86102e-005 0
                CHANNELS 3 Zrotation Xrotation Yrotation
                End Site
                {
                  OFFSET 0 0 0
                }
              }
            }
          }
        }
      }
    }
  }
}
MOTION
Frames:	9
Frame Time:	0.0416667
-55.1471 97.1002 48.8905 -31.8272 -88.201 -31.1257 -172.265 3.35105 91.7389 -6.15435 7.19099 -0.15627 59.9744 5.44142 13.815 36.4339 7.6669 -29.7984 178.143 3.76205 90.115 -10.3929 8.23681 -0.471623 64.7286 -1.86535 -1.01019 30.6197 -0.864409 20.5678 0.131701 5.39237 -89.8792 16.0889 0.321155 0.191277 4.41794 0.329265 0.176953 -18.1173 0.248814 0.278956 1.89534 0.248824 0.278961 102.213 28.6863 -59.9099 57.4584 27.8533 -96.7171 5.44907 23.3842 -42.3097 -13.9905 0.0312524 -5.80581 -74.6538 8.62613 111.51 -9.24914 -52.2501 -95.8945 2.26877 -44.9074 -12.7297 14.9444 -0.951057 -10.0165 28.032 -1.31405 -1.77065 -0.970512 -0.420779 3.16963 
-55.1653 97.123 48.8758 -34.6082 -88.2108 -33.8374 -172.112 3.28093 91.8687 -6.11413 7.06311 -0.249791 60.2307 5.63262 13.7603 35.6041 7.11783 -30.4282 178.132 3.77626 90.1776 -10.4996 8.28545 -0.422608 64.3151 -1.72994 -0.928975 31.427 -0.639184 19.9357 0.150919 5.3869 -89.8664 16.0998 0.365586 0.209795 4.42887 0.374456 0.193503 -18.1064 0.285634 0.309974 1.90622 0.285629 0.309968 102.29 28.334 -60.3172 56.7937 28.2742 -96.4689 5.43147 23.2101 -42.1971 -14.1689 0.0233359 -5.77033 -74.7323 8.99114 111.342 -9.69551 -51.9976 -95.9884 2.30807 -44.5169 -12.7809 14.7412 -0.960838 -10.1487 28.2294 -1.36393 -1.91071 -1.32265 -0.436788 2.83676 
-55.1972 97.1236 48.8593 -29.6336 -88.2027 -28.7695 -172.21 3.42486 91.9124 -6.16484 7.10352 -0.110204 60.2262 5.58307 13.5897 35.6076 7.12252 -30.2737 178.197 3.81499 90.2935 -10.4001 8.4296 -0.403656 64.3288 -1.7608 -0.948011 31.0674 -0.735004 20.1201 0.1573 5.3771 -89.8682 16.1194 0.37731 0.204222 4.44852 0.385928 0.187415 -18.0868 0.298487 0.308178 1.92584 0.298476 0.308168 102.19 28.7851 -59.8718 56.9877 27.8881 -96.4285 5.61555 23.7869 -42.193 -14.0259 0.00622533 -5.61521 -74.7275 8.73749 111.222 -8.82552 -52.2773 -95.7172 2.59258 -44.9559 -12.1103 14.7633 -0.989488 -10.331 28.8017 -1.36777 -1.65124 -1.94867 -0.557394 2.56222 
-55.2253 97.1215 48.8693 -30.0776 -88.2763 -29.1066 -172.195 3.36292 92.0356 -6.16434 7.19357 -0.0542261 60.1895 5.61708 13.7626 35.9508 7.32809 -31.2251 178.264 3.65395 90.4244 -10.2381 8.55655 -0.410789 64.3993 -1.80548 -0.97465 30.8522 -0.804347 20.5093 0.157951 5.38255 -89.8593 16.1084 0.383064 0.221271 4.43751 0.392442 0.204187 -18.0978 0.298856 0.326171 1.91485 0.298855 0.326166 102.243 28.547 -59.7498 57.099 27.6938 -96.8373 5.37561 23.7134 -41.9371 -13.7271 0.0261108 -5.71671 -74.7122 8.76567 111.311 -8.62074 -52.4093 -95.6811 2.8135 -44.7263 -11.8215 14.7828 -0.923218 -9.88639 28.8618 -1.39348 -1.63228 -1.92342 -0.58669 2.5945 
-55.2112 97.1273 48.899 -33.3749 -88.1992 -32.3237 -172.136 3.36943 92.1175 -6.13509 7.23073 -0.084606 59.9144 5.3218 13.6647 36.0001 7.38124 -29.9598 178.154 3.49432 90.4168 -9.92615 8.39262 -0.246007 64.2322 -1.82837 -0.991034 30.9365 -0.777223 20.3674 0.174861 5.38473 -89.8547 16.1041 0.418779 0.224695 4.43317 0.428269 0.206036 -18.1022 0.331886 0.340168 1.91044 0.331889 0.340162 102.178 28.8322 -59.5564 57.189 27.5647 -96.8324 5.11737 24.1433 -41.6864 -13.9478 0.00822036 -5.61714 -74.7678 8.84333 111.088 -8.10021 -52.6682 -95.1558 3.15189 -44.7668 -11.3849 14.2246 -0.905699 -9.95454 28.2201 -1.30825 -1.52086 -1.22127 -0.544594 2.54821 
-55.2421 97.1266 48.9455 -34.4793 -88.2847 -33.423 -172.076 3.26098 92.1597 -6.16157 7.18841 -0.120576 60.0927 5.58988 13.9001 36.3753 7.58785 -31.5727 178.114 3.46073 90.4103 -10.1153 8.27767 -0.214791 64.3339 -1.8158 -0.983592 31.1032 -0.720898 20.0119 0.175422 5.3966 -89.8323 16.0801 0.431208 0.267993 4.40916 0.442593 0.248746 -18.1262 0.330738 0.3852 1.8865 0.330731 0.385198 102.182 28.8088 -59.4348 57.166 27.6563 -96.7763 5.11824 24.0445 -41.8023 -14.0475 -0.0204838 -5.39558 -74.7327 9.02645 111.36 -8.14048 -52.6435 -95.4602 3.35712 -45.616 -10.8915 14.3314 -0.944856 -10.1912 28.2686 -1.46564 -1.62724 -1.5616 -0.655925 2.65956 
-55.2296 97.1182 48.9662 -37.0321 -88.2291 -35.9955 -172.068 3.22439 92.1347 -6.1609 6.98995 -0.127995 60.2198 5.64042 13.7442 35.3712 6.9668 -30.602 178.19 3.49439 90.4338 -10.182 8.23461 -0.31197 64.3116 -1.80768 -0.978002 31.1906 -0.698204 19.9656 0.182284 5.40343 -89.8272 16.07 0.447308 0.275495 4.39906 0.458997 0.255528 -18.1363 0.343825 0.397188 1.87636 0.343832 0.397188 102.121 29.0716 -59.1885 57.3014 27.6222 -96.7748 4.96458 24.0623 -41.8283 -13.7256 -0.0140326 -5.37462 -74.7147 9.19253 111.544 -8.93293 -52.3999 -95.603 2.74112 -45.4105 -11.9018 15.4505 -0.945447 -9.81558 28.2368 -1.41338 -1.71451 -1.55085 -0.570682 2.70637 
-55.2038 97.1255 48.976 -36.2985 -88.1863 -35.2124 -172.076 3.2703 92.1596 -6.1788 7.32304 -0.133937 60.1417 5.71507 14.0748 35.6684 7.1561 -30.6644 178.191 3.66728 90.4617 -10.3902 8.53871 -0.276348 64.2419 -1.76236 -0.950255 31.1331 -0.740189 20.6185 0.184066 5.40558 -89.8203 16.0827 0.454248 0.287774 4.41182 0.466472 0.267492 -18.1235 0.346758 0.410992 1.88914 0.346761 0.410989 102.189 28.7716 -59.0723 56.8191 27.7126 -96.7898 5.30956 24.2764 -41.8432 -13.6929 -0.0133248 -5.38228 -74.7588 9.34892 111.419 -8.9235 -52.3894 -95.5511 2.88604 -45.1484 -11.7962 14.9638 -0.931233 -9.87957 28.0195 -1.65791 -2.06079 -1.199 -0.649509 3.07233 
-55.1753 97.1477 48.9775 -35.4214 -88.1513 -34.3191 -172.135 3.34387 92.1675 -6.1359 7.18032 -0.0639564 59.8094 5.18018 13.5546 37.0132 8.02002 -30.5834 178.216 3.53817 90.452 -10.0075 8.38227 -0.299658 64.0422 -1.76854 -0.956948 31.3701 -0.670322 20.3422 0.185951 5.40621 -89.8248 16.0766 0.455683 0.27854 4.40567 0.467502 0.258212 -18.1297 0.350904 0.40262 1.88298 0.350903 0.402614 102.209 28.6841 -59.0679 56.8732 27.6463 -96.9204 5.60675 24.1779 -41.7553 -14.232 0.00740823 -5.67989 -74.702 9.2874 111.661 -9.00082 -52.3926 -95.9839 3.17135 -45.2664 -11.407 14.8451 -0.908733 -9.77047 28.2625 -1.56622 -1.83405 -1.55534 -0.657021 3.00599 
